<?xml version="1.0"?>
<svg version="1.1" xmlns="http://www.w3.org/2000/svg" width="400" height="200" style=""><path fill="#c73284" d="M22,99.055l13.195,0l0-2.66l-13.195,0q-2.59,0-4.34,2.03q-1.785,2.065-1.785,5.005q0,2.66,1.785,4.62q1.75,1.995,4.34,1.995l3.5,0l3.57,0q1.575,0,2.8,1.33q1.155,1.4,1.155,3.045q0,1.96-1.1375,3.185t-2.8175,1.225l-13.195,0l0,2.17l13.195,0q2.625,0,4.375-1.82t1.75-4.76q0-2.66-1.75-4.62q-1.785-1.96-4.375-1.96l-3.57,0l-3.5,0q-1.61,0-2.765-1.4q-1.19-1.295-1.19-3.01q0-1.96,1.1375-3.1675t2.8175-1.2075z M49.4344,96.36q-3.92,0-6.58,2.835q-2.625,2.8-2.625,6.825l0,14.98l2.205,0l0-10.99l14.07,0l0,10.99l2.205,0l0-14.98q0-4.025-2.625-6.825q-2.73-2.835-6.65-2.835z M56.5044,107.84l-14.07,0l0-1.82q0-3.01,2.03-5.215q2.065-2.24,4.97-2.24t5.04,2.24q2.03,2.205,2.03,5.215l0,1.82z M64.1988,121.035l2.205,0l0-24.605l-2.205,0l0,24.605z M90.4082,96.5l-2.17,0l0,2.59q0,3.22-2.24,5.39q-2.205,2.1-5.25,2.1q-3.255,0-5.355-2.1t-2.1-5.39l0-2.59l-2.17,0l0,2.59q0,3.92,2.38,6.65q2.345,2.765,5.95,3.01l0,12.285l2.205,0l0-12.285q3.675-0.28,6.195-3.01q2.555-2.73,2.555-6.65l0-2.59z M102.7226,96.465l-5.355,0l-1.33,0l-0.875,0l0,24.535l0.875,0l1.33,0l5.355,0q5.11,0,8.75-3.57q3.745-3.675,3.745-8.925q0-4.97-3.745-8.54q-3.675-3.5-8.75-3.5z M102.7226,118.795l-5.355,0l0-20.055l5.355,0q4.375,0,7.35,2.87q2.94,2.87,2.94,6.895q0,4.375-2.94,7.315q-2.975,2.975-7.35,2.975z M136.842,108.505q1.365-0.665,2.24-2.205q0.875-1.47,0.875-3.15q0-3.01-2.03-4.865q-2.03-1.82-5.11-1.82l-9.835,0l-0.42,0l-1.785,0l0,24.535l1.785,0l0.42,0l9.835,0q3.08,0,5.11-1.82q2.03-1.855,2.03-4.865q0-1.645-0.8575-3.2025t-2.2575-2.6075z M122.982,98.25l9.835,0q2.1,0,3.465,1.435q1.47,1.54,1.47,3.465q0,1.575-1.155,2.905q-1.085,1.19-2.87,1.575l-0.91,0l-9.835,0l0-9.38z M132.817,119.215l-9.835,0l0-9.38l9.835,0l0.91,0q1.785,0.385,2.87,1.575q1.155,1.33,1.155,2.905q0,1.89-1.47,3.43q-1.4,1.47-3.465,1.47z"/><path fill="#" d=""/></svg>
